<!DOCTYPE svg PUBLIC "-//W3C//DTD SVG 1.1//EN" "http://www.w3.org/Graphics/SVG/1.1/DTD/svg11.dtd">
<!-- Uploaded to: SVG Repo, www.svgrepo.com, Transformed by: SVG Repo Mixer Tools -->
<svg fill="#ffffff" height="800px" width="800px" version="1.1" id="Capa_1" xmlns="http://www.w3.org/2000/svg" xmlns:xlink="http://www.w3.org/1999/xlink" viewBox="0 0 179.593 179.593" xml:space="preserve" stroke="#ffffff" transform="rotate(270)">
<g id="SVGRepo_bgCarrier" stroke-width="0"/>
<g id="SVGRepo_tracerCarrier" stroke-linecap="round" stroke-linejoin="round"/>
<g id="SVGRepo_iconCarrier"> <path d="M149.105,110.429l-35.941-25.375c-2.529-15.716-5.967-31.306-7.883-39.571c-2.689-11.604-5.544-22.574-8.036-30.888 C93.066,0.649,91.817,0,89.796,0c-2.009,0-3.453,0.705-7.657,14.587c-2.482,8.195-5.332,19.169-8.023,30.9 c-3.261,14.215-5.897,27.758-7.753,39.612L30.49,110.428c-1.561,1.1-2.693,3.286-2.693,5.196v22.149c0,2.325,1.686,4.079,3.92,4.079 c0.345,0,0.694-0.043,1.04-0.128l30.04-7.368v6.37c-0.243,0.207-0.464,0.435-0.647,0.684l-11.755,15.892 c-0.723,0.977-1.089,2.441-0.911,3.646l2.296,15.524c0.265,1.779,1.821,3.121,3.619,3.121h7.447c1.692,0,3.267-1.241,3.661-2.875 l2.243-9.125h0.188l2.242,9.234c0.39,1.628,1.896,2.766,3.665,2.766h8c1.692,0,3.267-1.241,3.661-2.875l2.243-9.125h0.188 l2.242,9.234c0.39,1.628,1.896,2.766,3.665,2.766h9c1.692,0,3.267-1.241,3.661-2.875l2.243-9.125h0.188l2.242,9.234 c0.39,1.628,1.896,2.766,3.665,2.766h7.447c1.801,0,3.356-1.344,3.618-3.124l2.298-15.523c0.177-1.201-0.189-2.664-0.912-3.645 l-11.755-15.891c-0.209-0.282-0.462-0.539-0.745-0.767v-6.533l31.039,7.613c0.347,0.085,0.696,0.128,1.041,0.128 c2.234,0,3.92-1.753,3.92-4.079v-22.149C151.796,113.714,150.664,111.528,149.105,110.429z M90.061,89.476 c-2.106,0-9.507-12.108-9.507-27.045c0-14.937,6.807-27.045,9.507-27.045c2.363,0,9.507,12.108,9.507,27.045 C99.568,77.368,91.994,89.476,90.061,89.476z"/> </g>
</svg>